# xmcd
#
# Track frame offsets:
#	150
#	23747
#	40458
#	63188
#	86949
#	103103
#	123998
#	145652
#	170290
#	195486
#	217885
#	233151
#	250827
#	275034
#	295058
#
# Disc length: 4175 seconds
#
# Revision: 0
# Processed by: cddbd v1.4PL0 Copyright (c) Steve Scherf et al.
# Submitted via: audiograbber 1.81.03
#
DISCID=d5104d0f
DTITLE=Various Artist - Mustique Blues Festival 2002
DYEAR=2002
DGENRE=Blues
TTITLE0=Zach Prather - Help Me
TTITLE1=Dana Gillespie - Meat Balls
TTITLE2=Earl Green - T Bone Shuffle
TTITLE3=Big Joe Louis - Tailor Made
TTITLE4=Little Jenny - Let Me Play With Your Poodle
TTITLE5=Zach Prather - Angel Of Mercy
TTITLE6=Felix Dennis - Who Do You Love
TTITLE7=Earl Green - Pink Champagne
TTITLE8=Dana Gillespie - Put My Anchor Down
TTITLE9=Big Joe Louis - I Cried Last Night
TTITLE10=Steve 'Big Man' Clayton - Boogie Woogie Country Girl
TTITLE11=Dana Gillespie - Staying Power
TTITLE12=Little Jenny - The Reason Why
TTITLE13=Big Joe Louis - Rock It
TTITLE14=Zach Prather - Sweet Home Chicago
EXTD=In the last week of January, for the last six years, the Caribbean Island 
EXTD=of Mustique has been the destination for a charity blues festival, founded
EXTD=and organised by Dana. The festival started as a small event but as Musti
EXTD=que has grown in popularity, as a tourist destination and as a playground 
EXTD=for the wealthy, so has the festival. The funds collected are used to pay 
EXTD=for education on the poorer neighbouring island, St Vincent.\n
EXTT0=
EXTT1=
EXTT2=
EXTT3=
EXTT4=
EXTT5=
EXTT6=
EXTT7=
EXTT8=
EXTT9=
EXTT10=
EXTT11=
EXTT12=
EXTT13=
EXTT14=
PLAYORDER=
